<svg width="24" height="24" viewBox="0 0 24 24" fill="none" xmlns="http://www.w3.org/2000/svg">
<path d="M12.9991 15.9969H7.9996M13.999 7.99698H7.9996M15.9988 11.9969H7.9996M4 2.99673C4 2.73151 4.10535 2.47716 4.29286 2.28963C4.48038 2.1021 4.73471 1.99674 4.9999 1.99674C5.24749 1.99538 5.49033 2.06477 5.69983 2.19674L6.63274 2.79673C6.84175 2.9303 7.08462 3.00128 7.33267 3.00128C7.58071 3.00128 7.82358 2.9303 8.0326 2.79673L8.9665 2.19674C9.17552 2.06316 9.41839 1.99219 9.66643 1.99219C9.91448 1.99219 10.1573 2.06316 10.3664 2.19674L11.2993 2.79673C11.5083 2.9303 11.7512 3.00128 11.9992 3.00128C12.2472 3.00128 12.4901 2.9303 12.6991 2.79673L13.632 2.19674C13.8411 2.06316 14.0839 1.99219 14.332 1.99219C14.58 1.99219 14.8229 2.06316 15.0319 2.19674L15.9658 2.79673C16.1748 2.9303 16.4177 3.00128 16.6657 3.00128C16.9138 3.00128 17.1566 2.9303 17.3657 2.79673L18.2986 2.19674C18.5081 2.06477 18.7509 1.99538 18.9985 1.99674C19.2637 1.99674 19.518 2.1021 19.7055 2.28963C19.8931 2.47716 19.9984 2.73151 19.9984 2.99673V20.9964C19.9984 21.2617 19.8931 21.516 19.7055 21.7035C19.518 21.8911 19.2637 21.9964 18.9985 21.9964C18.7509 21.9978 18.5081 21.9284 18.2986 21.7964L17.3657 21.1964C17.1566 21.0629 16.9138 20.9919 16.6657 20.9919C16.4177 20.9919 16.1748 21.0629 15.9658 21.1964L15.0319 21.7964C14.8229 21.93 14.58 22.001 14.332 22.001C14.0839 22.001 13.8411 21.93 13.632 21.7964L12.6991 21.1964C12.4901 21.0629 12.2472 20.9919 11.9992 20.9919C11.7512 20.9919 11.5083 21.0629 11.2993 21.1964L10.3664 21.7964C10.1573 21.93 9.91448 22.001 9.66643 22.001C9.41839 22.001 9.17552 21.93 8.9665 21.7964L8.0326 21.1964C7.82358 21.0629 7.58071 20.9919 7.33267 20.9919C7.08462 20.9919 6.84175 21.0629 6.63274 21.1964L5.69983 21.7964C5.49033 21.9284 5.24749 21.9978 4.9999 21.9964C4.73471 21.9964 4.48038 21.8911 4.29286 21.7035C4.10535 21.516 4 21.2617 4 20.9964V2.99673Z" stroke="#F59E0B" stroke-width="2" stroke-linecap="round"/>
</svg>
